<?xml version="1.0" encoding="UTF-8" standalone="no"?>
<!-- Created with SketchThing (http://mccormick.cx/projects/SketchThing/) -->

<svg
   xmlns:dc="http://purl.org/dc/elements/1.1/"
   xmlns:cc="http://creativecommons.org/ns#"
   xmlns:rdf="http://www.w3.org/1999/02/22-rdf-syntax-ns#"
   xmlns:svg="http://www.w3.org/2000/svg"
   xmlns="http://www.w3.org/2000/svg"
   xmlns:sodipodi="http://sodipodi.sourceforge.net/DTD/sodipodi-0.dtd"
   xmlns:inkscape="http://www.inkscape.org/namespaces/inkscape"
   version="1.1"
   width="318"
   height="399"
   id="svg3640"
   inkscape:version="0.48.2 r9819"
   sodipodi:docname="blob.svg">
  <metadata
     id="metadata3651">
    <rdf:RDF>
      <cc:Work
         rdf:about="">
        <dc:format>image/svg+xml</dc:format>
        <dc:type
           rdf:resource="http://purl.org/dc/dcmitype/StillImage" />
        <dc:title></dc:title>
      </cc:Work>
    </rdf:RDF>
  </metadata>
  <defs
     id="defs3649" />
  <sodipodi:namedview
     pagecolor="#ffffff"
     bordercolor="#666666"
     borderopacity="1"
     objecttolerance="10"
     gridtolerance="10"
     guidetolerance="10"
     inkscape:pageopacity="0"
     inkscape:pageshadow="2"
     inkscape:window-width="1366"
     inkscape:window-height="728"
     id="namedview3647"
     showgrid="false"
     inkscape:zoom="2.3659148"
     inkscape:cx="111.00608"
     inkscape:cy="170.46765"
     inkscape:window-x="0"
     inkscape:window-y="16"
     inkscape:window-maximized="1"
     inkscape:current-layer="svg3640" />
  <g
     id="sketch"
     transform="matrix(4.5177009,0,0,4.5177009,-555.79674,-702.40852)"
     style="fill:#ffffff"
     inkscape:export-filename="/home/chrism/dev/web/The_Cycle_GGJ-2012/res/img/blob.png"
     inkscape:export-xdpi="90"
     inkscape:export-ydpi="90">
    <path
       style="fill:#ffffff;stroke:#000000;stroke-width:0.22135152999999999px;stroke-linecap:butt;stroke-linejoin:miter;stroke-opacity:1"
       d="M 163,186 161.78284,190.80868 159.97854,194.55588 161.90406,196.69255 164.47113,198.24829 166.99901,201.99865 170.12683,206.29579 172.56178,210.10739 171.14741,210.93683 166.79182,211.99725 143,212 145,208.55893 145,206 146.98004,202.46649 148.96305,199.80115 150.80001,196.0875 150.55435,195.96199 153.23429,194.13759 156.44643,191.55329 160.54448,189.2895 161.74768,187.3032 165,187"
       id="path0"
       inkscape:connector-curvature="0"
       sodipodi:nodetypes="cccccccccccccccccccccc" />
    <path
       style="fill:#ffffff;stroke:#000000;stroke-width:0.22135152999999999px;stroke-linecap:butt;stroke-linejoin:miter;stroke-opacity:1"
       d="M 152,202 C 153,202 154,202 155,202"
       id="path1"
       inkscape:connector-curvature="0" />
    <path
       style="fill:#ffffff;stroke:#000000;stroke-width:0.22135152999999999px;stroke-linecap:butt;stroke-linejoin:miter;stroke-opacity:1"
       d="M 159,202 C 160,202 161,202 162,202 161.66667,202 161.33333,202 161,202"
       id="path2"
       inkscape:connector-curvature="0" />
    <path
       style="fill:#ffffff;stroke:#000000;stroke-width:0.22135152999999999px;stroke-linecap:butt;stroke-linejoin:miter;stroke-opacity:1"
       d="M 152,210 C 153,210 154,210 155,210"
       id="path3"
       inkscape:connector-curvature="0" />
  </g>
</svg>
