<?xml version="1.0" encoding="UTF-8" standalone="no"?>
<!-- Created with SketchThing (http://mccormick.cx/projects/SketchThing/) -->
<svg xmlns="http://www.w3.org/2000/svg" version="1.1" width="798" height="399">
<g id="sketch">
	<path style="fill:none; stroke:#000000; stroke-width:2px; stroke-linecap:butt; stroke-linejoin:miter; stroke-opacity:1" d="M 385,172 384,151 384,141 386,136 395,120 406,114 417,112 429,114 438,123 440,126 448,142 448,150 448,153 449,155 449,156 448,159 449,159 450,160 451,161 456,160 469,159 487,156 498,149 502,145 502,145 501,145 501,150 498,153 480,175 462,187 440,195 432,197 402,197 390,192 387,191 386,185 386,177 386,171 386,165 387,164" id="path0" />
	<path style="fill:none; stroke:#000000; stroke-width:2px; stroke-linecap:butt; stroke-linejoin:miter; stroke-opacity:1" d="M 400,151" id="path1" />
	<path style="fill:none; stroke:#000000; stroke-width:2px; stroke-linecap:butt; stroke-linejoin:miter; stroke-opacity:1" d="M 394,155 411,147 414,148 414,148 414,148 414,148" id="path2" />
	<path style="fill:none; stroke:#000000; stroke-width:2px; stroke-linecap:butt; stroke-linejoin:miter; stroke-opacity:1" d="M 425,150 441,143 442,143 442,143 444,142 443,143" id="path3" />
	<path style="fill:none; stroke:#000000; stroke-width:2px; stroke-linecap:butt; stroke-linejoin:miter; stroke-opacity:1" d="M 396,197 382,214 368,222 347,228 331,231 314,231 301,225 286,217 277,207 272,197 270,194" id="path4" />
	<path style="fill:none; stroke:#000000; stroke-width:2px; stroke-linecap:butt; stroke-linejoin:miter; stroke-opacity:1" d="M 409,200 402,216 401,221 399,230 396,239 395,246 395,249 394,257 390,265 388,268 387,269 386,271 387,271 386,281 385,319 385,338 383,333 383,328 373,294 370,278 369,273 369,273 370,273 370,273 371,276 371,305 369,326 368,334 368,335 368,331 362,311 355,274 354,268 354,269 355,269 355,269 353,268 349,273 334,283 319,285 306,286 297,288 295,285 294,283 295,283 294,290 295,320 295,334 295,334 294,333 290,306 284,287 281,279 282,281 285,283 283,309 281,327 280,333 281,334 279,333 277,319 276,302 277,283 278,273 278,271 277,271 277,271 276,271 272,266 268,252 265,231 265,217 266,213 267,205 269,196 269,192 270,192 270,192 270,191 270,191" id="path5" />
	<path style="fill:none; stroke:#000000; stroke-width:2px; stroke-linecap:butt; stroke-linejoin:miter; stroke-opacity:1" d="M 394,125 375,123 360,107 340,78 328,54 325,50 324,52 324,54 326,66 323,81 323,86 324,86 319,82 310,58 307,47 306,45 302,47 297,62 297,82 296,91 296,92 294,93 288,81 279,60 275,49 274,58 275,78 280,95 285,102 308,117 347,130 374,134 382,135 388,135 389,136 389,136" id="path6" />
	<path style="fill:none; stroke:#000000; stroke-width:2px; stroke-linecap:butt; stroke-linejoin:miter; stroke-opacity:1" d="M 435,116 452,104 461,95 476,69 479,61 481,57 481,52 482,53 481,59 483,75 485,82 485,83 485,83 491,75 499,57 505,48 506,48 505,50 505,55 509,73 510,78 511,90 514,85 521,67 529,49 532,45 532,43 532,43 533,43 533,45 530,61 513,86 495,105 463,123 448,129 446,129" id="path7" />
</g>
</svg>