<?xml version="1.0" encoding="UTF-8" standalone="no"?>
<!-- Created with SketchThing (http://mccormick.cx/projects/SketchThing/) -->
<svg xmlns="http://www.w3.org/2000/svg" version="1.1" width="798" height="399">
<g id="sketch">
	<path style="fill:none; stroke:#000000; stroke-width:2px; stroke-linecap:butt; stroke-linejoin:miter; stroke-opacity:1" d="M 342,248 342,231 342,227 342,222 346,212 344,206 344,203 344,194 345,186 347,170 350,158 352,151 354,145 360,135 368,128 378,123 382,121 397,120 407,119 420,124 430,129 439,139 443,154 447,171 448,194 451,216 450,229 451,238 452,242 451,247 450,249 450,251 444,243 440,236 438,234 437,242 438,248 437,253 438,260 437,260 425,247 418,236 418,236 418,237 412,250 408,259 408,260 408,260 407,259 403,245 400,238 394,237 391,250 384,261 383,262 383,262 380,259 376,246 374,238 372,235 372,235 365,243 359,253 359,256 356,257 356,258 356,257 356,257 354,253 348,248 344,245 344,245 343,245 343,245 344,245" id="path0" />
	<path style="fill:none; stroke:#000000; stroke-width:2px; stroke-linecap:butt; stroke-linejoin:miter; stroke-opacity:1" d="M 369,177 378,162 380,160 381,158 381,156 382,156 382,156 384,155" id="path1" />
	<path style="fill:none; stroke:#000000; stroke-width:2px; stroke-linecap:butt; stroke-linejoin:miter; stroke-opacity:1" d="M 370,157 382,170 385,172 386,174 386,173 386,175 387,175" id="path2" />
	<path style="fill:none; stroke:#000000; stroke-width:2px; stroke-linecap:butt; stroke-linejoin:miter; stroke-opacity:1" d="M 412,172 421,157 421,155 422,153 422,152 423,152" id="path3" />
	<path style="fill:none; stroke:#000000; stroke-width:2px; stroke-linecap:butt; stroke-linejoin:miter; stroke-opacity:1" d="M 407,152 421,163 427,169 429,173 430,175" id="path4" />
	<path style="fill:none; stroke:#000000; stroke-width:2px; stroke-linecap:butt; stroke-linejoin:miter; stroke-opacity:1" d="M 375,215 394,207 404,202 423,197 431,196 432,196 432,196 433,198 433,205 433,214 433,221 433,222 433,222 433,221 425,221 397,218 383,217 379,217 378,217 377,217 377,217" id="path5" />
	<path style="fill:none; stroke:#000000; stroke-width:2px; stroke-linecap:butt; stroke-linejoin:miter; stroke-opacity:1" d="M 377,214 398,212 407,212 420,212 429,211 430,211 432,211 433,211 433,211" id="path6" />
	<path style="fill:none; stroke:#000000; stroke-width:2px; stroke-linecap:butt; stroke-linejoin:miter; stroke-opacity:1" d="M 424,195 427,212 428,218 428,221 427,221 428,222" id="path7" />
	<path style="fill:none; stroke:#000000; stroke-width:2px; stroke-linecap:butt; stroke-linejoin:miter; stroke-opacity:1" d="M 415,197 417,214 417,219 418,221 418,221 418,221 418,221" id="path8" />
	<path style="fill:none; stroke:#000000; stroke-width:2px; stroke-linecap:butt; stroke-linejoin:miter; stroke-opacity:1" d="M 408,202 408,220 408,222 408,222 408,223 409,223" id="path9" />
	<path style="fill:none; stroke:#000000; stroke-width:2px; stroke-linecap:butt; stroke-linejoin:miter; stroke-opacity:1" d="M 396,202 398,219 399,221 399,221 398,222" id="path10" />
	<path style="fill:none; stroke:#000000; stroke-width:2px; stroke-linecap:butt; stroke-linejoin:miter; stroke-opacity:1" d="M 388,210" id="path11" />
	<path style="fill:none; stroke:#000000; stroke-width:2px; stroke-linecap:butt; stroke-linejoin:miter; stroke-opacity:1" d="M 389,208 388,226 389,226" id="path12" />
</g>
</svg>