<?xml version="1.0" encoding="UTF-8" standalone="no"?>
<!-- Created with SketchThing (http://mccormick.cx/projects/SketchThing/) -->
<svg xmlns="http://www.w3.org/2000/svg" version="1.1" width="798" height="399">
<g id="sketch">
	<path style="fill:none; stroke:#000000; stroke-width:2px; stroke-linecap:butt; stroke-linejoin:miter; stroke-opacity:1" d="M 348,223 348,204 348,197 348,188 350,178 349,167 349,161 349,156 349,149 349,141 349,135 349,129 351,121 354,112 360,100 366,94 374,91 376,90 383,87 389,85 398,82 403,82 412,81 423,81 431,84 439,91 443,98 447,108 450,118 452,129 456,147 458,155 458,165 459,174 460,187 459,196 459,207 459,213 458,221 458,221 457,231 456,233 457,233 454,234 446,225 442,221 431,211 430,212 429,219 425,231 424,238 424,238 424,240 422,236 420,232 416,213 416,206 413,210 408,222 399,233 396,239 394,241 394,241 391,234 386,219 385,213 383,211 381,208 382,209 379,219 376,226 374,235 373,237 373,239 370,235 368,221 367,212 365,208 364,207 365,207 364,207 357,210 355,217 351,221 350,222 348,222 351,222" id="path0" />
	<path style="fill:none; stroke:#000000; stroke-width:2px; stroke-linecap:butt; stroke-linejoin:miter; stroke-opacity:1" d="M 374,146 393,141 396,141 402,142 404,142 404,142" id="path1" />
	<path style="fill:none; stroke:#000000; stroke-width:2px; stroke-linecap:butt; stroke-linejoin:miter; stroke-opacity:1" d="M 423,142 440,147 443,149 446,150" id="path2" />
	<path style="fill:none; stroke:#000000; stroke-width:2px; stroke-linecap:butt; stroke-linejoin:miter; stroke-opacity:1" d="M 417,183" id="path3" />
	<path style="fill:none; stroke:#000000; stroke-width:2px; stroke-linecap:butt; stroke-linejoin:miter; stroke-opacity:1" d="M 419,185 436,180 435,180 437,179 438,179 438,179" id="path4" />
</g>
</svg>