<?xml version="1.0" encoding="UTF-8" standalone="no"?>
<!-- Created with SketchThing (http://mccormick.cx/projects/SketchThing/) -->
<svg xmlns="http://www.w3.org/2000/svg" version="1.1" width="798" height="399">
<g id="sketch">
	<path style="fill:none; stroke:#000000; stroke-width:2px; stroke-linecap:butt; stroke-linejoin:miter; stroke-opacity:1" d="M 338,218 341,200 341,195 342,186 341,178 341,171 341,169 342,159 342,153 342,145 345,138 349,131 351,124 358,117 362,108 371,99 380,94 383,92 394,90 402,89 409,92 421,101 430,112 437,129 439,146 440,157 439,166 441,178 440,191 439,199 440,202 440,211 441,215 440,220 440,220 439,218 432,208 429,202 429,202 428,210 426,220 423,227 423,231 420,231 416,224 409,208 406,202 405,205 403,219 400,226 399,230 396,231 395,228 394,215 388,202 388,201 386,206 382,222 378,231 377,233 376,233 370,224 362,204 362,202 359,208 357,217 355,229 354,233 354,232 352,232 348,229 344,221 342,219 341,217" id="path0" />
	<path style="fill:none; stroke:#000000; stroke-width:2px; stroke-linecap:butt; stroke-linejoin:miter; stroke-opacity:1" d="M 366,149 383,148 390,149 391,148 397,149 400,148 400,149 399,149 397,155 394,156 390,159 384,159 381,158 374,156 373,153 370,150 370,148" id="path1" />
	<path style="fill:none; stroke:#000000; stroke-width:2px; stroke-linecap:butt; stroke-linejoin:miter; stroke-opacity:1" d="M 409,149 427,149 434,150 434,150 434,150 433,154 430,160 427,160 421,162 413,158 412,152 412,150 412,149" id="path2" />
	<path style="fill:none; stroke:#000000; stroke-width:2px; stroke-linecap:butt; stroke-linejoin:miter; stroke-opacity:1" d="M 406,192 423,191" id="path3" />
</g>
</svg>