<?xml version="1.0" encoding="UTF-8" standalone="no"?>
<!-- Created with SketchThing (http://mccormick.cx/projects/SketchThing/) -->

<svg
   xmlns:dc="http://purl.org/dc/elements/1.1/"
   xmlns:cc="http://creativecommons.org/ns#"
   xmlns:rdf="http://www.w3.org/1999/02/22-rdf-syntax-ns#"
   xmlns:svg="http://www.w3.org/2000/svg"
   xmlns="http://www.w3.org/2000/svg"
   xmlns:sodipodi="http://sodipodi.sourceforge.net/DTD/sodipodi-0.dtd"
   xmlns:inkscape="http://www.inkscape.org/namespaces/inkscape"
   version="1.1"
   width="798"
   height="399"
   id="svg3160"
   inkscape:version="0.48.2 r9819"
   sodipodi:docname="mushroom.svg">
  <metadata
     id="metadata3172">
    <rdf:RDF>
      <cc:Work
         rdf:about="">
        <dc:format>image/svg+xml</dc:format>
        <dc:type
           rdf:resource="http://purl.org/dc/dcmitype/StillImage" />
        <dc:title></dc:title>
      </cc:Work>
    </rdf:RDF>
  </metadata>
  <defs
     id="defs3170" />
  <sodipodi:namedview
     pagecolor="#ffffff"
     bordercolor="#666666"
     borderopacity="1"
     objecttolerance="10"
     gridtolerance="10"
     guidetolerance="10"
     inkscape:pageopacity="0"
     inkscape:pageshadow="2"
     inkscape:window-width="1366"
     inkscape:window-height="728"
     id="namedview3168"
     showgrid="false"
     inkscape:zoom="1.2618046"
     inkscape:cx="150.72985"
     inkscape:cy="-105.79821"
     inkscape:window-x="0"
     inkscape:window-y="16"
     inkscape:window-maximized="1"
     inkscape:current-layer="svg3160" />
  <g
     id="sketch">
    <path
       style="fill:none; stroke:#000000; stroke-width:2px; stroke-linecap:butt; stroke-linejoin:miter; stroke-opacity:1"
       d="M 365,250 356,266 356,268 358,270 358,276 359,278 367,281 373,284 380,283 388,284 395,286 407,286 412,285 418,283 423,282 425,279 426,275 429,270 429,264 428,261 426,259 422,253 421,251 417,246 414,241 412,237 409,230 409,223 409,216 407,208 407,206 406,199 406,192 406,190 405,184 405,181 404,177 404,176 404,170"
       id="path0" />
    <path
       style="fill:none; stroke:#000000; stroke-width:2px; stroke-linecap:butt; stroke-linejoin:miter; stroke-opacity:1"
       d="M 373,167 370,185 370,190 369,196 368,202 368,206 368,214 370,220 370,226 369,232 368,235 367,240 366,243 365,245 364,248 364,249 364,249 364,252 364,255 363,255 362,257"
       id="path1" />
    <path
       style="fill:none; stroke:#000000; stroke-width:2px; stroke-linecap:butt; stroke-linejoin:miter; stroke-opacity:1"
       d="M 317,157 335,158 342,161 353,166 362,168 371,169 381,172 384,172 393,174 400,173 407,172 418,171 425,167 432,165 436,163 441,163 441,161 446,159 448,157 453,155 455,155 456,153 458,149 459,144 460,142 460,132 460,124 459,119 458,113 452,106 446,96 443,93 439,84 435,77 427,72 417,67 407,65 398,65 384,66 372,68 369,70 359,76 351,79 340,88 332,97 332,100 324,110 321,117 319,127 318,132 315,139 316,144 316,150 319,154 320,154 322,156 324,158 326,158 327,158 328,159"
       id="path2" />
    <path
       style="fill:none; stroke:#000000; stroke-width:2px; stroke-linecap:butt; stroke-linejoin:miter; stroke-opacity:1"
       d="M 449,101 434,110 429,113 428,114 424,119 424,123 423,128 423,130 426,136 429,141 434,145 436,148 438,148 442,151 446,153 451,154 451,154 454,156 456,157 456,157"
       id="path3" />
    <path
       style="fill:none; stroke:#000000; stroke-width:2px; stroke-linecap:butt; stroke-linejoin:miter; stroke-opacity:1"
       d="M 371,104 353,105 351,107 348,111 346,115 345,122 347,129 353,136 358,139 364,138 372,136 377,133 380,128 382,124 382,120 381,112 378,107 375,102 374,100 370,101"
       id="path4" />
  </g>
  <g
     id="g3174"
     transform="translate(-296.40089,399.82419)"
     style="fill:#ffffff"
     inkscape:export-filename="/home/chrism/dev/games/The_Cycle_GGJ-2012/res/img/mushroom-1.png"
     inkscape:export-xdpi="29.836678"
     inkscape:export-ydpi="29.836678">
    <path
       style="fill:#ffffff;stroke:#000000;stroke-width:2px;stroke-linecap:butt;stroke-linejoin:miter;stroke-opacity:1"
       d="M 370.75843,168.16887 C 370.5702,181.05968 370.43409,172.89827 368.89953,185.65687 368.1274,194.00813 370.66307,189.34216 366.41427,199.81455 364.98309,205.68756 366.89116,204.00431 364.68878,209.99059 360.58132,217.99541 353.32053,225.34704 357.28427,234.66747 362.35372,242.89064 373.37452,244.38465 382.13721,243.56842 391.72357,245.28369 401.48999,248.11079 411.20267,245.20442 422.38681,245.30227 429.1593,234.76307 428.38361,224.34726 425.33395,217.41247 419.96357,211.53798 415.91079,205.03895 411.33604,198.30723 407.48259,190.44206 408.65146,182.08708 408.10785,170.37773 406.57503,179.74356 407.45027,171.84531"
       id="path3178"
       inkscape:connector-curvature="0"
       sodipodi:nodetypes="ccccccccccc" />
    <path
       style="fill:#ffffff;stroke:#000000;stroke-width:2px;stroke-linecap:butt;stroke-linejoin:miter;stroke-opacity:1"
       d="M 336.98129,162.75509 C 345.88863,165.94135 358.22149,168.11319 371.29677,169.36137 380.58732,171.17297 389.80969,174.79546 399.38077,172.98179 408.91756,172.31002 418.92825,171.44675 427.27174,166.32628 437.35549,164.62816 445.77179,158.56132 454.5545,154.11573 462.07131,145.80544 459.68648,133.15393 459.74059,122.86063 459.48448,110.95209 449.34426,103.72273 444.24492,93.899695 438.81173,85.707962 436.36546,74.616625 425.72048,71.358198 409.8459,61.663621 390.55924,65.038225 373.2487,67.856137 364.76626,73.210029 355.09977,76.688641 347.02138,82.292994 337.76765,88.001218 332.64625,97.357264 327.14899,106.25478 320.04577,113.00521 320.63028,122.9381 317.76549,131.54736 314.19065,139.83965 313.85892,151.53982 322.63079,156.71673 326.32383,159.06538 331.27826,160.73114 336.98129,162.75509 z"
       id="path3180"
       inkscape:connector-curvature="0"
       sodipodi:nodetypes="cccccccccccccc" />
    <path
       sodipodi:nodetypes="cccccc"
       inkscape:connector-curvature="0"
       id="path3201"
       d="M 406.53667,65.272104 C 400.76162,73.309537 403.62944,86.095189 412.77365,89.174194 420.78329,91.981208 424.18851,87.639117 429.84349,82.570458 432.38061,80.066087 431.40314,77.776712 430.93843,74.053663 L 419.50809,68.191851 z"
       style="fill:#ffaaaa;stroke:#000000;stroke-width:1.99999988px;stroke-linecap:butt;stroke-linejoin:miter;stroke-opacity:1" />
    <path
       style="fill:#ffaaaa;stroke:#000000;stroke-width:2px;stroke-linecap:butt;stroke-linejoin:miter;stroke-opacity:1"
       d="M 459.3027,120.36856 C 446.31509,115.40476 430.50882,124.54178 429.56759,138.03639 428.59343,149.89589 435.85123,153.66484 444.75671,159.52427 L 454.73265,154.32356 458.26408,148.98275 460.25442,139.7192 z"
       id="path3182"
       inkscape:connector-curvature="0"
       sodipodi:nodetypes="ccccccc" />
    <path
       style="fill:#ffaaaa;stroke:#000000;stroke-width:2px;stroke-linecap:butt;stroke-linejoin:miter;stroke-opacity:1"
       d="M 351.01871,110.54761 C 340.77044,118.26669 340.93683,134.81191 351.57786,142.08171 361.03243,146.79325 375.56614,141.94436 379.01038,131.52706 381.5954,122.8243 378.43104,105.75509 366.89241,106.71771 361.53957,107.70284 356.36146,109.4777 351.01871,110.54761 z"
       id="path3184"
       inkscape:connector-curvature="0"
       sodipodi:nodetypes="ccccc" />
  </g>
  <g
     inkscape:export-ydpi="29.836678"
     inkscape:export-xdpi="29.836678"
     inkscape:export-filename="/home/chrism/dev/games/The_Cycle_GGJ-2012/res/img/mushroom-2.png"
     style="fill:#ffffff"
     transform="matrix(-1,0,0,1,690.86244,399.82419)"
     id="g3203">
    <path
       sodipodi:nodetypes="ccccccccccc"
       inkscape:connector-curvature="0"
       id="path3205"
       d="M 370.75843,168.16887 C 370.5702,181.05968 370.43409,172.89827 368.89953,185.65687 368.1274,194.00813 370.66307,189.34216 366.41427,199.81455 364.98309,205.68756 357.38097,210.34444 355.17859,216.33072 351.07113,224.33554 351.7355,232.47968 355.69924,241.80011 360.76869,250.02328 377.3371,246.7622 386.09979,245.94597 395.68615,247.66124 405.45257,245.73324 415.16525,242.82687 426.34939,242.92472 426.78175,229.21546 426.00606,218.79965 422.9564,211.86486 415.20848,206.78289 411.1557,200.28386 406.58095,193.55214 406.69007,194.40464 407.85894,186.04966 407.31533,174.34031 406.57503,179.74356 407.45027,171.84531"
       style="fill:#ffffff;stroke:#000000;stroke-width:2px;stroke-linecap:butt;stroke-linejoin:miter;stroke-opacity:1" />
    <path
       sodipodi:nodetypes="cccccccccccccc"
       inkscape:connector-curvature="0"
       id="path3207"
       d="M 336.98129,162.75509 C 345.88863,165.94135 358.22149,168.11319 371.29677,169.36137 380.58732,171.17297 389.80969,174.79546 399.38077,172.98179 408.91756,172.31002 418.92825,171.44675 427.27174,166.32628 437.35549,164.62816 445.77179,158.56132 454.5545,154.11573 462.07131,145.80544 459.68648,133.15393 459.74059,122.86063 459.48448,110.95209 449.34426,103.72273 444.24492,93.899695 438.81173,85.707962 436.36546,74.616625 425.72048,71.358198 409.8459,61.663621 390.55924,65.038225 373.2487,67.856137 364.76626,73.210029 355.09977,76.688641 347.02138,82.292994 337.76765,88.001218 332.64625,97.357264 327.14899,106.25478 320.04577,113.00521 320.63028,122.9381 317.76549,131.54736 314.19065,139.83965 313.85892,151.53982 322.63079,156.71673 326.32383,159.06538 331.27826,160.73114 336.98129,162.75509 z"
       style="fill:#ffffff;stroke:#000000;stroke-width:2px;stroke-linecap:butt;stroke-linejoin:miter;stroke-opacity:1" />
    <path
       style="fill:#c4e443;stroke:#000000;stroke-width:1.99999988000000006px;stroke-linecap:butt;stroke-linejoin:miter;stroke-opacity:1;fill-opacity:1"
       d="M 406.53667,65.272104 C 400.76162,73.309537 403.62944,86.095189 412.77365,89.174194 420.78329,91.981208 424.18851,87.639117 429.84349,82.570458 432.38061,80.066087 431.40314,77.776712 430.93843,74.053663 L 419.50809,68.191851 z"
       id="path3209"
       inkscape:connector-curvature="0"
       sodipodi:nodetypes="cccccc" />
    <path
       sodipodi:nodetypes="ccccccc"
       inkscape:connector-curvature="0"
       id="path3211"
       d="M 459.3027,120.36856 C 446.31509,115.40476 430.50882,124.54178 429.56759,138.03639 428.59343,149.89589 435.85123,153.66484 444.75671,159.52427 L 454.73265,154.32356 458.26408,148.98275 460.25442,139.7192 z"
       style="fill:#c4e443;stroke:#000000;stroke-width:2px;stroke-linecap:butt;stroke-linejoin:miter;stroke-opacity:1;fill-opacity:1" />
    <path
       sodipodi:nodetypes="ccccc"
       inkscape:connector-curvature="0"
       id="path3213"
       d="M 351.01871,110.54761 C 340.77044,118.26669 340.93683,134.81191 351.57786,142.08171 361.03243,146.79325 375.56614,141.94436 379.01038,131.52706 381.5954,122.8243 378.43104,105.75509 366.89241,106.71771 361.53957,107.70284 356.36146,109.4777 351.01871,110.54761 z"
       style="fill:#c4e443;stroke:#000000;stroke-width:2px;stroke-linecap:butt;stroke-linejoin:miter;stroke-opacity:1;fill-opacity:1" />
  </g>
</svg>
