<?xml version="1.0" encoding="UTF-8" standalone="no"?>
<!-- Created with SketchThing (http://mccormick.cx/projects/SketchThing/) -->
<svg xmlns="http://www.w3.org/2000/svg" version="1.1" width="798" height="399">
<g id="sketch">
	<path style="fill:none; stroke:#000000; stroke-width:2px; stroke-linecap:butt; stroke-linejoin:miter; stroke-opacity:1" d="M 319,258 313,240 317,223 363,205 391,210 398,216 407,231 413,247 414,251 415,251 414,251 415,252 406,254 373,259 361,259 336,257 322,255" id="path0" />
	<path style="fill:none; stroke:#000000; stroke-width:2px; stroke-linecap:butt; stroke-linejoin:miter; stroke-opacity:1" d="M 61,207 80,207 99,209 139,212 165,215 171,217 170,216 170,216 170,216 173,208 172,189 164,165 152,148 133,138 118,137 108,140 102,140 89,148 77,154 65,167 60,187 61,198 62,203 63,206 64,205 65,206" id="path1" />
	<path style="fill:none; stroke:#000000; stroke-width:2px; stroke-linecap:butt; stroke-linejoin:miter; stroke-opacity:1" d="M 610,191 628,193 650,197 680,196 691,193 692,191 693,190 692,190 693,190 693,190 694,191 695,190 695,182 702,159 705,144 705,143 704,140 701,137 684,130 674,122 665,117 658,114 650,108 643,107 637,105 631,110 622,118 610,133 605,141 602,154 606,169 607,177 611,183 613,188 615,189 615,190 615,190" id="path2" />
	<path style="fill:none; stroke:#000000; stroke-width:2px; stroke-linecap:butt; stroke-linejoin:miter; stroke-opacity:1" d="M 468,331 487,340 501,345 535,344 557,340 568,336 569,335 570,334 569,335 570,335 570,334 569,334 568,325 567,297 569,230 571,182 571,134 570,112 570,109 569,106 566,108 556,121 528,149 507,171 497,182 494,187 484,201 483,213 483,223 484,235 485,248 484,256 476,272 470,288 467,293 466,296 465,309 469,322 471,332 471,334 472,336 474,337" id="path3" />
	<path style="fill:none; stroke:#000000; stroke-width:2px; stroke-linecap:butt; stroke-linejoin:miter; stroke-opacity:1" d="M 240,201 231,174 226,155 218,123 216,113 229,99 255,79 274,72 287,68 303,62 326,66 342,77 355,83 369,79 384,73 398,75 395,107 391,118 378,150 374,174 370,185 346,191 301,197 263,200 245,201" id="path4" />
</g>
</svg>