<?xml version="1.0" encoding="UTF-8" standalone="no"?>
<!-- Created with SketchThing (http://mccormick.cx/projects/SketchThing/) -->
<svg xmlns="http://www.w3.org/2000/svg" version="1.1" width="798" height="399">
<g id="sketch">
	<path style="fill:none; stroke:#000000; stroke-width:2px; stroke-linecap:butt; stroke-linejoin:miter; stroke-opacity:1" d="M 307,304 325,309 342,312 360,315 392,316 422,315 450,315 462,313 469,311 469,311 469,311 470,310 469,307" id="path0" />
	<path style="fill:none; stroke:#000000; stroke-width:2px; stroke-linecap:butt; stroke-linejoin:miter; stroke-opacity:1" d="M 307,301 300,275 294,248 286,216 284,207 285,207 283,205 286,205 327,176 359,154 365,150 366,150 366,150 366,150 372,152 400,168 419,178 422,180 422,179 422,179 440,173 462,167 464,164 465,164 465,164 465,165 466,165 471,169 494,192 506,202 511,205 512,205 508,214 491,256 480,287 472,300 472,310 470,314 470,314" id="path1" />
</g>
</svg>