<?xml version="1.0" encoding="UTF-8" standalone="no"?>
<!-- Created with SketchThing (http://mccormick.cx/projects/SketchThing/) -->
<svg xmlns="http://www.w3.org/2000/svg" version="1.1" width="798" height="399">
<g id="sketch">
	<path style="fill:none; stroke:#000000; stroke-width:2px; stroke-linecap:butt; stroke-linejoin:miter; stroke-opacity:1" d="M 314,314 337,313 355,315 377,315 401,313 421,313 435,314 448,314 460,314 470,313 482,313 490,312 513,314 517,314 517,314 517,314 516,314 520,313 530,309 542,294 552,272 557,249 551,235 541,228 537,228 532,229 531,229 531,230 533,229 543,223 559,207 563,179 553,173 536,175 524,181 521,184 520,185 523,185 522,185 521,184 522,182 528,170 535,151 540,127 539,106 529,92 515,84 499,89 484,104 479,117 475,122 475,119 474,114 472,109 466,101 458,92 446,82 427,77 407,72 393,76 388,90 384,109 384,122 383,126 384,127 383,122 377,112 367,100 339,81 321,78 313,79 300,84 298,95 300,109 304,122 306,127 307,127 305,128 304,128 301,126 292,120 274,115 264,115 246,121 246,135 239,151 248,180 264,194 269,196 274,196 270,195 261,199 254,208 250,223 248,243 253,260 267,267 283,265 283,263 290,263 288,265 285,274 279,285 283,294 288,301 293,307 296,309 302,312 308,315 312,315 313,315 316,315 317,315" id="path0" />
</g>
</svg>