<?xml version="1.0" encoding="UTF-8" standalone="no"?>
<!-- Created with SketchThing (http://mccormick.cx/projects/SketchThing/) -->
<svg xmlns="http://www.w3.org/2000/svg" version="1.1" width="798" height="453">
<g id="sketch">
	<path style="fill:none; stroke:#000000; stroke-width:2px; stroke-linecap:butt; stroke-linejoin:miter; stroke-opacity:1" d="M 309,204 318,189 324,178 355,133 364,120 386,93 388,89 397,94 426,126 469,186 479,211 479,214 481,214 475,215 432,207 366,202 318,202 314,202" id="path0" />
	<path style="fill:none; stroke:#000000; stroke-width:2px; stroke-linecap:butt; stroke-linejoin:miter; stroke-opacity:1" d="M 354,202 341,220 335,229 326,248 320,261 319,264 319,265 319,265 318,265 323,266 344,269 392,271 426,271 451,268 461,269 467,269 474,269 473,268 470,257 466,251 453,227 449,216 445,209 445,207 445,207" id="path1" />
	<path style="fill:none; stroke:#000000; stroke-width:2px; stroke-linecap:butt; stroke-linejoin:miter; stroke-opacity:1" d="M 350,272 336,289 328,300 316,315 308,327 308,327 304,333 301,338 299,341 299,341 303,341 328,341 338,340 373,339 414,340 449,338 469,339 487,337 497,337 498,337 500,336 490,324 480,314 451,285 443,276 443,276 440,270 440,270 440,270 441,271 440,269" id="path2" />
	<path style="fill:none; stroke:#000000; stroke-width:2px; stroke-linecap:butt; stroke-linejoin:miter; stroke-opacity:1" d="M 386,342 386,362 385,372 385,387 385,393 385,397 386,402 385,406 385,407 383,410 385,412 386,413" id="path3" />
	<path style="fill:none; stroke:#000000; stroke-width:2px; stroke-linecap:butt; stroke-linejoin:miter; stroke-opacity:1" d="M 412,342 412,362 412,378 412,385 411,390 413,400 412,403 412,404 411,404 411,404 412,406 412,407" id="path4" />
	<path style="fill:none; stroke:#000000; stroke-width:2px; stroke-linecap:butt; stroke-linejoin:miter; stroke-opacity:1" d="M 413,405 397,414 390,414 385,413 384,413 383,412" id="path5" />
</g>
</svg>