<?xml version="1.0" encoding="UTF-8" standalone="no"?>
<!-- Created with SketchThing (http://mccormick.cx/projects/SketchThing/) -->

<svg
   xmlns:dc="http://purl.org/dc/elements/1.1/"
   xmlns:cc="http://creativecommons.org/ns#"
   xmlns:rdf="http://www.w3.org/1999/02/22-rdf-syntax-ns#"
   xmlns:svg="http://www.w3.org/2000/svg"
   xmlns="http://www.w3.org/2000/svg"
   xmlns:sodipodi="http://sodipodi.sourceforge.net/DTD/sodipodi-0.dtd"
   xmlns:inkscape="http://www.inkscape.org/namespaces/inkscape"
   version="1.1"
   width="798"
   height="399"
   id="svg3138"
   inkscape:version="0.48.2 r9819"
   sodipodi:docname="tree-2.svg">
  <metadata
     id="metadata3149">
    <rdf:RDF>
      <cc:Work
         rdf:about="">
        <dc:format>image/svg+xml</dc:format>
        <dc:type
           rdf:resource="http://purl.org/dc/dcmitype/StillImage" />
        <dc:title></dc:title>
      </cc:Work>
    </rdf:RDF>
  </metadata>
  <defs
     id="defs3147" />
  <sodipodi:namedview
     pagecolor="#ffffff"
     bordercolor="#666666"
     borderopacity="1"
     objecttolerance="10"
     gridtolerance="10"
     guidetolerance="10"
     inkscape:pageopacity="0"
     inkscape:pageshadow="2"
     inkscape:window-width="1366"
     inkscape:window-height="728"
     id="namedview3145"
     showgrid="false"
     inkscape:zoom="1.4285714"
     inkscape:cx="153.0009"
     inkscape:cy="-258.25805"
     inkscape:window-x="0"
     inkscape:window-y="16"
     inkscape:window-maximized="1"
     inkscape:current-layer="svg3138" />
  <g
     id="sketch">
    <path
       style="fill:none; stroke:#000000; stroke-width:2px; stroke-linecap:butt; stroke-linejoin:miter; stroke-opacity:1"
       d="M 400,64 383,62 379,62 369,61 359,61 357,61 347,67 328,85 310,110 300,133 299,141 296,169 304,188 316,206 330,224 355,240 363,244 392,255 423,260 450,254 475,235 500,206 512,182 515,157 518,150 516,131 503,103 482,84 465,75 443,65 427,62 412,61 402,62"
       id="path0" />
    <path
       style="fill:none; stroke:#000000; stroke-width:2px; stroke-linecap:butt; stroke-linejoin:miter; stroke-opacity:1"
       d="M 398,256 401,275 401,286 401,305 400,311 400,337 400,351 400,360 401,364 401,363"
       id="path1" />
    <path
       style="fill:none; stroke:#000000; stroke-width:2px; stroke-linecap:butt; stroke-linejoin:miter; stroke-opacity:1"
       d="M 439,259 430,274 426,297 424,310 424,330 425,345 424,353 423,358 422,360 424,362 423,363 422,363 424,364 422,363 422,363"
       id="path2" />
    <path
       style="fill:none; stroke:#000000; stroke-width:2px; stroke-linecap:butt; stroke-linejoin:miter; stroke-opacity:1"
       d="M 403,366 421,366 424,365 425,365 425,366 425,365"
       id="path3" />
  </g>
  <g
     id="g3151"
     transform="translate(-168.29142,425.67829)"
     inkscape:export-filename="/home/chrism/dev/games/The_Cycle_GGJ-2012/res/img/tree-2.png"
     inkscape:export-xdpi="29.964092"
     inkscape:export-ydpi="29.964092">
    <path
       id="path3155"
       d="M 388.9,252.5 391.9,271.5 C 392.17024,291.04691 390.9,299.03663 390.9,307.5 L 390.9,316.5 392.9,321.5 411.9,322.5 414.9,321 414.9,309.5 C 414.19543,288.75962 416.26851,297.13109 420.9,270.5 L 429.55,253.05"
       style="fill:#aa4400;stroke:#000000;stroke-width:2px;stroke-linecap:butt;stroke-linejoin:miter;stroke-opacity:1"
       inkscape:connector-curvature="0"
       sodipodi:nodetypes="cccccccccc" />
    <path
       style="fill:#009800;stroke:#000000;stroke-width:2px;stroke-linecap:butt;stroke-linejoin:miter;stroke-opacity:1;fill-opacity:1"
       d="M 378.45,56.05 356.48386,61.309685 340.44552,73.209512 322.37272,92.815664 306.63998,117.72804 299.10409,140.16727 296.23358,169.55475 309.34216,196.01325 330.50698,224.32447 372.0047,247.41558 400.91361,256.43768 423.58759,259.86943 450.47923,253.63579 476.17905,233.6323 500.53837,204.92325 512.14343,180.80473 515.47422,155.8935 517.43289,144.61248 513.21177,124.99458 502.55365,102.59616 480.93606,83.436738 442.40839,64.889073 415.01558,56.66535 395.4851,55.149172 z"
       id="path3153"
       inkscape:connector-curvature="0"
       sodipodi:nodetypes="ccccccccccccccccccccccccc" />
    <path
       style="fill:#00b700;stroke:none;stroke-width:2px;stroke-linecap:butt;stroke-linejoin:miter;stroke-opacity:1;fill-opacity:1"
       d="M 378.6875,58.0625 C 368.54515,61.016073 357.05956,61.088813 349.28352,69.117408 338.8912,76.164864 331.0634,86.330143 322.90044,95.690773 316.09429,107.11935 307.25333,117.58025 304.32634,130.85361 299.12458,142.961 300.12388,156.39353 298.28125,169.21875 305.06964,182.85551 311.01918,197.00768 321.20675,208.55584 355.21599,79.159533 374.61396,95.905208 451.04499,71.269912 439.09034,64.968677 425.69766,61.81492 412.72477,58.501127 401.33134,57.202072 390.11346,56.965294 378.6875,58.0625 z"
       id="path3328"
       inkscape:connector-curvature="0"
       sodipodi:nodetypes="ccccccccc" />
  </g>
</svg>
