<?xml version="1.0" encoding="UTF-8" standalone="no"?>
<!-- Created with SketchThing (http://mccormick.cx/projects/SketchThing/) -->
<svg xmlns="http://www.w3.org/2000/svg" version="1.1" width="798" height="399">
<g id="sketch">
	<path style="fill:none; stroke:#000000; stroke-width:2px; stroke-linecap:butt; stroke-linejoin:miter; stroke-opacity:1" d="M 385,69 366,73 358,77 344,87 324,118 314,150 318,185 335,207 363,228 393,239 419,239 446,226 476,194 486,164 487,135 485,125 469,96 454,81 428,69 410,67 392,68 385,68" id="path0" />
	<path style="fill:none; stroke:#000000; stroke-width:2px; stroke-linecap:butt; stroke-linejoin:miter; stroke-opacity:1" d="M 391,238 392,261 393,275 394,289 394,295 390,306 388,326 387,332 388,340 387,348 387,357 386,360" id="path1" />
	<path style="fill:none; stroke:#000000; stroke-width:2px; stroke-linecap:butt; stroke-linejoin:miter; stroke-opacity:1" d="M 416,240 415,262 413,282 411,311 411,334 410,346 412,354 412,357 411,358 412,360 412,360" id="path2" />
	<path style="fill:none; stroke:#000000; stroke-width:2px; stroke-linecap:butt; stroke-linejoin:miter; stroke-opacity:1" d="M 388,360 406,366 414,367 416,365 416,363 416,363 415,362" id="path3" />
</g>
</svg>