<?xml version="1.0" encoding="UTF-8" standalone="no"?>
<!-- Created with SketchThing (http://mccormick.cx/projects/SketchThing/) -->
<svg xmlns="http://www.w3.org/2000/svg" version="1.1" width="798" height="453">
<g id="sketch">
	<path style="fill:none; stroke:#000000; stroke-width:2px; stroke-linecap:butt; stroke-linejoin:miter; stroke-opacity:1" d="M 335,151 354,147 364,148 380,150 396,147 411,145 428,146 443,146 453,148 465,149 469,147 472,149 474,149 474,149 473,149 470,149 472,148 473,148 472,148 472,148 471,148 465,140 456,123 446,103 435,86 415,65 414,59 414,57 412,59 406,64 397,76 382,93 368,110 357,122 350,132 346,138 344,141 343,146 340,151 338,153" id="path0" />
	<path style="fill:none; stroke:#000000; stroke-width:2px; stroke-linecap:butt; stroke-linejoin:miter; stroke-opacity:1" d="M 363,147 348,165 343,171 337,183 329,196 323,211 316,224 311,233 307,239 307,239 306,243 306,243 307,242 313,241 324,240 338,239 353,236 372,236 386,236 399,235 414,236 428,236 438,236 449,236 466,238 474,236 488,234 496,234 502,231 508,230 512,230 514,230 512,228 507,218 501,212 490,198 485,190 481,182 477,174 473,166 469,155 464,152 463,149 463,149 463,149 463,150" id="path1" />
	<path style="fill:none; stroke:#000000; stroke-width:2px; stroke-linecap:butt; stroke-linejoin:miter; stroke-opacity:1" d="M 335,239 324,256 317,268 313,273 307,280 301,289 297,296 292,302 289,308 287,311 286,313 285,314 285,314 285,314 295,315 307,314 315,314 322,314 338,315 357,318 378,322 402,322 428,320 456,316 479,315 494,312 506,311 519,312 526,312 533,312 539,312 539,312 546,312 549,314 549,314 549,314 549,313 547,310 544,307 539,302 532,295 527,285 522,276 517,266 513,258 507,251 504,244 502,244 498,235 498,235 498,235" id="path2" />
	<path style="fill:none; stroke:#000000; stroke-width:2px; stroke-linecap:butt; stroke-linejoin:miter; stroke-opacity:1" d="M 400,320 399,337 399,342 400,348 403,354 403,360 405,365 405,369 404,373 404,375 403,378 403,378 403,378 403,379 404,380 404,381 403,381 403,382 403,383 404,383 405,385 405,386 405,387 406,387 408,388 409,389 411,391 413,392 416,393 419,393 422,393 427,393 430,393 433,392 436,391 439,390 439,390 439,388 438,388 438,383 437,377 437,370 437,364 437,357 437,350 436,343 436,335 436,330 436,326 436,324 437,321 438,319 437,319 437,319 437,319 436,319 436,318 437,319" id="path3" />
</g>
</svg>