<?xml version="1.0" encoding="UTF-8" standalone="no"?>
<!-- Created with SketchThing (http://mccormick.cx/projects/SketchThing/) -->
<svg xmlns="http://www.w3.org/2000/svg" version="1.1" width="798" height="399">
<g id="sketch">
	<path style="fill:none; stroke:#000000; stroke-width:2px; stroke-linecap:butt; stroke-linejoin:miter; stroke-opacity:1" d="M 400,64 383,62 379,62 369,61 359,61 357,61 347,67 328,85 310,110 300,133 299,141 296,169 304,188 316,206 330,224 355,240 363,244 392,255 423,260 450,254 475,235 500,206 512,182 515,157 518,150 516,131 503,103 482,84 465,75 443,65 427,62 412,61 402,62" id="path0" />
	<path style="fill:none; stroke:#000000; stroke-width:2px; stroke-linecap:butt; stroke-linejoin:miter; stroke-opacity:1" d="M 398,256 401,275 401,286 401,305 400,311 400,337 400,351 400,360 401,364 401,363" id="path1" />
	<path style="fill:none; stroke:#000000; stroke-width:2px; stroke-linecap:butt; stroke-linejoin:miter; stroke-opacity:1" d="M 439,259 430,274 426,297 424,310 424,330 425,345 424,353 423,358 422,360 424,362 423,363 422,363 424,364 422,363 422,363" id="path2" />
	<path style="fill:none; stroke:#000000; stroke-width:2px; stroke-linecap:butt; stroke-linejoin:miter; stroke-opacity:1" d="M 403,366 421,366 424,365 425,365 425,366 425,365" id="path3" />
</g>
</svg>